<?xml version="1.0" encoding="UTF-8" standalone="no"?>
<!-- Created with Inkscape (http://www.inkscape.org/) -->

<svg
   xmlns:dc="http://purl.org/dc/elements/1.1/"
   xmlns:cc="http://creativecommons.org/ns#"
   xmlns:rdf="http://www.w3.org/1999/02/22-rdf-syntax-ns#"
   xmlns:svg="http://www.w3.org/2000/svg"
   xmlns="http://www.w3.org/2000/svg"
   xmlns:sodipodi="http://sodipodi.sourceforge.net/DTD/sodipodi-0.dtd"
   xmlns:inkscape="http://www.inkscape.org/namespaces/inkscape"
   width="128"
   height="128"
   id="svg6002"
   version="1.1"
   inkscape:version="0.48.4 r9939"
   inkscape:export-filename="C:\Users\Michiel\workspace\Swarm\textures\blade_bloody.png"
   inkscape:export-xdpi="90"
   inkscape:export-ydpi="90"
   sodipodi:docname="New document 16">
  <defs
     id="defs6004" />
  <sodipodi:namedview
     id="base"
     pagecolor="#ffffff"
     bordercolor="#666666"
     borderopacity="1.0"
     inkscape:pageopacity="0.0"
     inkscape:pageshadow="2"
     inkscape:zoom="6.625"
     inkscape:cx="40.651403"
     inkscape:cy="63.6856"
     inkscape:document-units="px"
     inkscape:current-layer="layer1"
     showgrid="false"
     inkscape:window-width="1920"
     inkscape:window-height="1017"
     inkscape:window-x="-8"
     inkscape:window-y="-8"
     inkscape:window-maximized="1" />
  <metadata
     id="metadata6007">
    <rdf:RDF>
      <cc:Work
         rdf:about="">
        <dc:format>image/svg+xml</dc:format>
        <dc:type
           rdf:resource="http://purl.org/dc/dcmitype/StillImage" />
        <dc:title></dc:title>
      </cc:Work>
    </rdf:RDF>
  </metadata>
  <g
     inkscape:label="Layer 1"
     inkscape:groupmode="layer"
     id="layer1"
     transform="translate(0,-924.36218)">
    <path
       sodipodi:type="star"
       style="fill:#a0a0a0;fill-opacity:1;stroke:#cccccc;stroke-width:4;stroke-miterlimit:4;stroke-dasharray:none"
       id="path6010"
       sodipodi:sides="18"
       sodipodi:cx="62.188679"
       sodipodi:cy="58.415092"
       sodipodi:r1="63.157322"
       sodipodi:r2="52.386776"
       sodipodi:arg1="-2.5071735"
       sodipodi:arg2="-2.5781162"
       inkscape:flatsided="false"
       inkscape:rounded="0"
       inkscape:randomized="0"
       d="M 11.320754,20.981129 17.900723,30.433826 27.191635,5.8408188 30.14177,16.97393 47.283676,-2.9582584 46.248147,8.5124497 69.17348,-4.3548037 64.277188,6.0699645 90.220813,1.8196268 l -8.166489,8.1214474 25.832736,4.8792318 -10.451691,4.83856 22.606031,13.420293 -11.47626,0.972072 16.65272,20.342669 -11.11663,-3.011663 8.69083,24.81142 -9.41616,-6.632148 -0.3193,26.287547 -6.57997,-9.452697 -9.290908,24.593011 -2.950135,-11.133115 -17.141905,19.932185 1.035528,-11.4707 -22.925332,12.86725 4.896291,-10.42477 -25.943625,4.25034 8.16649,-8.12145 L 16.490299,102.00988 26.941988,97.171319 4.3359536,83.751026 15.812213,82.778954 -0.84049964,62.436285 10.276125,65.447948 1.5852962,40.636528 11.001457,47.268676 z"
       transform="matrix(0.91252866,0,0,0.91252866,7.2033886,935.28361)"
       inkscape:transform-center-x="-0.49720099"
       inkscape:transform-center-y="-2.3668458" />
    <path
       style="fill:#ad0017;fill-opacity:1;stroke:#cccccc;stroke-width:0;stroke-linecap:butt;stroke-linejoin:miter;stroke-miterlimit:4;stroke-opacity:1"
       d="M 69.875 9.65625 C 67.207361 9.65625 65.0625 11.832361 65.0625 14.5 C 65.0625 17.16764 67.207361 19.3125 69.875 19.3125 C 72.54264 19.3125 74.71875 17.16764 74.71875 14.5 C 74.71875 14.041409 74.651311 13.608481 74.53125 13.1875 L 68.96875 14.09375 L 71 9.78125 C 70.636998 9.6938619 70.264151 9.65625 69.875 9.65625 z M 91.1875 10.46875 L 89.25 10.78125 L 77.46875 12.71875 C 76.325335 14.323275 75.625 16.286206 75.625 18.40625 C 75.625 23.824893 80.018858 28.21875 85.4375 28.21875 C 90.099416 28.21875 94.000689 24.95288 95 20.59375 L 85.8125 18.84375 L 90.8125 13.875 L 92.78125 11.9375 C 92.296971 11.387274 91.782616 10.899184 91.1875 10.46875 z M 56.15625 14.1875 C 52.238155 14.1875 49.0625 17.363155 49.0625 21.28125 C 49.0625 25.199346 52.238155 28.375 56.15625 28.375 C 60.074346 28.375 63.25 25.199346 63.25 21.28125 C 63.25 17.363155 60.074346 14.1875 56.15625 14.1875 z M 29.40625 17.96875 L 23.46875 33.75 C 25.0083 35.020572 26.973174 35.78125 29.125 35.78125 C 34.043461 35.78125 38.03125 31.793461 38.03125 26.875 C 38.03125 24.933371 37.398578 23.150989 36.34375 21.6875 L 35.5625 22.59375 L 34.90625 20.125 C 33.41515 18.844784 31.509443 18.034832 29.40625 17.96875 z M 102.5 23.84375 C 98.665268 23.84375 95.5625 26.946518 95.5625 30.78125 C 95.5625 34.615982 98.665268 37.75 102.5 37.75 C 105.12076 37.75 107.38228 36.275892 108.5625 34.125 L 100.03125 29.0625 L 106.40625 26.09375 L 107.21875 25.71875 C 105.97994 24.563917 104.32934 23.84375 102.5 23.84375 z M 17.5 37.59375 C 16.833233 37.59375 16.184242 37.717497 15.59375 37.9375 L 15.46875 48.03125 C 16.094752 48.280211 16.784414 48.4375 17.5 48.4375 C 20.501095 48.4375 22.9375 46.032345 22.9375 43.03125 C 22.9375 40.030156 20.501095 37.59375 17.5 37.59375 z M 108.53125 42.875 C 104.69652 42.875 101.59375 45.977768 101.59375 49.8125 C 101.59375 53.647232 104.69652 56.75 108.53125 56.75 C 112.19911 56.75 115.18352 53.915143 115.4375 50.3125 L 109.90625 43.53125 L 111.21875 43.40625 C 110.38861 43.055448 109.48993 42.875 108.53125 42.875 z M 12.53125 52.53125 C 11.106355 52.53125 9.7910729 53.00103 8.71875 53.78125 L 12.84375 65.5 C 16.281457 65.33567 19.03125 62.509447 19.03125 59.03125 C 19.03125 55.44661 16.115891 52.53125 12.53125 52.53125 z M 110.1875 58.5625 C 106.10268 58.5625 102.78125 61.883927 102.78125 65.96875 C 102.78125 70.053574 106.10268 73.34375 110.1875 73.34375 C 113.30982 73.34375 115.97463 71.417666 117.0625 68.6875 L 114.1875 60.46875 L 115.53125 60.84375 C 114.18252 59.437354 112.28604 58.5625 110.1875 58.5625 z M 22.78125 63.25 C 19.19661 63.25 16.3125 66.16536 16.3125 69.75 C 16.3125 73.334641 19.19661 76.21875 22.78125 76.21875 C 26.365891 76.21875 29.28125 73.334641 29.28125 69.75 C 29.28125 66.16536 26.365891 63.25 22.78125 63.25 z M 99.78125 71.84375 C 97.697157 71.84375 96 73.540907 96 75.625 C 96 77.709094 97.697157 79.40625 99.78125 79.40625 C 101.86534 79.40625 103.5625 77.709094 103.5625 75.625 C 103.5625 73.540907 101.86534 71.84375 99.78125 71.84375 z M 19.3125 77.59375 C 17.186725 77.59375 15.265431 78.453319 13.875 79.84375 L 18 84.90625 L 11.625 85.46875 C 11.725794 89.631988 15.124621 92.96875 19.3125 92.96875 C 23.564051 92.96875 27.03125 89.532801 27.03125 85.28125 C 27.03125 81.0297 23.564051 77.59375 19.3125 77.59375 z M 105.34375 80.4375 C 101.25893 80.4375 97.96875 83.758927 97.96875 87.84375 C 97.96875 91.566322 100.70501 94.637723 104.28125 95.15625 L 104.84375 93.65625 L 105.9375 95.21875 C 108.88037 94.98161 111.34811 93.017897 112.3125 90.34375 L 112.375 85.53125 C 111.39909 82.580666 108.61794 80.4375 105.34375 80.4375 z M 60.96875 96.59375 C 56.7172 96.59375 53.28125 100.06095 53.28125 104.3125 C 53.28125 108.56405 56.7172 112 60.96875 112 C 65.220301 112 68.6875 108.56405 68.6875 104.3125 C 68.6875 100.06095 65.220301 96.59375 60.96875 96.59375 z M 100.96875 97.0625 C 97.800928 97.0625 95.25 99.613428 95.25 102.78125 C 95.25 105.37607 96.952317 107.56959 99.3125 108.28125 L 103.375 97.5625 C 102.647 97.231552 101.8201 97.0625 100.96875 97.0625 z M 27.78125 98.40625 C 27.308442 98.40625 26.849654 98.46421 26.40625 98.5625 L 27.84375 99.40625 L 22.03125 102.09375 C 21.657636 102.90198 21.4375 103.80174 21.4375 104.75 C 21.4375 105.07744 21.452065 105.40462 21.5 105.71875 L 21.90625 105.78125 L 33.25 107.9375 C 33.796133 107.00058 34.125 105.91177 34.125 104.75 C 34.125 101.24872 31.282527 98.40625 27.78125 98.40625 z M 88 102.34375 C 84.165268 102.34375 81.0625 105.44652 81.0625 109.28125 C 81.0625 111.75982 82.360207 113.92943 84.3125 115.15625 L 92.3125 105.84375 L 94.09375 112.5625 C 94.619473 111.58505 94.9375 110.47002 94.9375 109.28125 C 94.9375 105.44652 91.834732 102.34375 88 102.34375 z M 47.40625 105.65625 C 44.767557 105.65625 42.48624 107.23646 41.46875 109.5 L 42.09375 109.625 L 41.09375 110.625 C 40.974796 111.11606 40.90625 111.6291 40.90625 112.15625 C 40.90625 114.05263 41.731951 115.7483 43.03125 116.9375 L 53.0625 115.3125 C 53.580314 114.37696 53.875 113.30179 53.875 112.15625 C 53.875 108.57161 50.990891 105.65625 47.40625 105.65625 z M 72.59375 107.03125 C 69.592656 107.03125 67.15625 109.43641 67.15625 112.4375 C 67.15625 114.2891 68.084704 115.92414 69.5 116.90625 L 76.34375 113.0625 L 76.03125 116.65625 C 77.258733 115.65895 78.03125 114.14082 78.03125 112.4375 C 78.03125 109.43641 75.594845 107.03125 72.59375 107.03125 z "
       transform="translate(0,924.36218)"
       id="path7110" />
  </g>
</svg>
